<?xml version="1.0" standalone="no"?><!DOCTYPE svg PUBLIC "-//W3C//DTD SVG 1.1//EN" "http://www.w3.org/Graphics/SVG/1.1/DTD/svg11.dtd"><svg t="1681032263920" class="icon" viewBox="0 0 1024 1024" version="1.1" xmlns="http://www.w3.org/2000/svg" p-id="16352" xmlns:xlink="http://www.w3.org/1999/xlink" width="200" height="200"><path d="M521 448h421.8c4.6 26 7 50.8 7 74.5 0 84.2-17.6 159.3-52.9 225.5-35.3 66.1-85.6 117.8-151 155.1-65.4 37.2-140.3 55.8-224.9 55.8-60.9 0-118.9-11.7-174-35.2-55.1-23.5-102.6-55.2-142.5-95.1-40-40-71.7-87.5-95.1-142.5-23.5-55.1-35.2-113-35.2-174 0-60.9 11.7-118.9 35.2-174 23.5-55.1 55.2-102.6 95.1-142.5 40-40 87.5-71.7 142.5-95.1C402.1 77 460 65.3 521 65.3c116.4 0 216.2 39 299.6 116.9L699 299c-47.7-46.2-107-69.2-178-69.2-50 0-96.3 12.6-138.8 37.8-42.5 25.2-76.1 59.5-100.9 102.7-24.8 43.2-37.2 90.5-37.2 141.7 0 51.2 12.4 98.4 37.2 141.7 24.8 43.2 58.5 77.5 100.9 102.7 42.5 25.2 88.7 37.8 138.8 37.8 33.8 0 64.8-4.7 93.1-14 28.3-9.3 51.6-21 69.8-34.9 18.2-13.9 34.1-29.8 47.7-47.7 13.6-17.9 23.5-34.7 30-50.6 6.4-15.9 10.8-31 13.1-45.4H521V448z m0 0" fill="#ffffff" p-id="16353"></path></svg>